# xmcd
# 
# Track frame offsets:
#     150
#     12755
#     24515
#     37872
#     48547
#     67855
#     79189
#     90734
#     99249
#     112236
#     129781
# 
# Disc length: 1968
# 
# Revision: 9
# Processed by: cddbd v1.5.2PL0 Copyright (c) Steve Scherf et al.
# Submitted via: fre:ac v1.0.31
# 
DISCID=7b07ae0b
DTITLE=Nina Simone - Nina Simone Sings the Blues
DYEAR=1967
DGENRE=Jazz
TTITLE0=Do I Move You?
TTITLE1=Day and Night
TTITLE2=In the Dark
TTITLE3=Real Real
TTITLE4=My Man's Gone Now
TTITLE5=Backlash Blues
TTITLE6=I Want a Little Sugar in My Bowl
TTITLE7=Buck
TTITLE8=Since I Fell for You
TTITLE9=The House of the Rising Sun
TTITLE10=Blues for Mama
EXTD=YEAR: 1967
EXTT0=
EXTT1=
EXTT2=
EXTT3=
EXTT4=
EXTT5=
EXTT6=
EXTT7=
EXTT8=
EXTT9=
EXTT10=
PLAYORDER=
